<svg id="Слой_1" data-name="Слой 1" xmlns="http://www.w3.org/2000/svg" viewBox="0 0 1920 1920"><defs><style>.cls-1{fill:#fff;}</style></defs><path class="cls-1" d="M1388.58,481.7l4.82-1a2181.75,2181.75,0,0,0,314.12-88.92L1647.34,227.5A1992.57,1992.57,0,0,1,960,349.43h-4.12A1993,1993,0,0,1,272.66,227.5L212.48,391.82a2180.64,2180.64,0,0,0,311,88.29c2.63.54,5.27,1.06,7.91,1.59V726.24H243.62v175h287.8V1693h175V901.24h507.16V1693h175V901.24h288.85v-175H1388.58ZM706.42,726.24V509.53q82.79,9.74,166.08,13.12v99.17h175V522.64q83.19-3.37,166.08-13.11V726.24Z"/><path class="cls-1" d="M938.9,1627.83l-67.11-15.29c-6.34,27-13,53.66-20,80.36H808.73a12.32,12.32,0,0,1,.21-1.22c3.37-13.11,6.85-26.2,10.11-39.34,4-16.09,7.84-32.22,11.73-48.34a3.1,3.1,0,0,0,.09-1.35c-.82-3.51-1.72-7-2.52-10.5q-3.72-16.12-7.37-32.24c-.06-.25-.09-.5-.18-1,6.41,1,12.64,2.49,19.06,3.53,1.91-9.6,3.75-19.07,5.34-28.83-9.17,1.9-18.1,3.85-27,6.16s-17.57,4.73-26.47,7.13v-43.33c2.47-.7,4.92-1.47,7.41-2.08,10.6-2.59,21.18-5.26,31.82-7.65q16.88-3.79,34-6.37c6.72-1,13.43-2.11,20.17-3,8.28-1,16.58-1.86,24.89-2.64,6.36-.6,12.73-1.13,19.11-1.42,9-.39,18-.66,27-.73,8.4-.07,16.8,0,25.19.35,9.36.38,18.72,1.07,28.07,1.75,5.59.41,11.19.94,16.76,1.63q12,1.49,24,3.29c6.57,1,13.13,2,19.66,3.23,15.94,3,31.78,6.43,47.45,10.61,3.23.86,6.45,1.75,9.68,2.62.44.12.87.28,1.32.42v43.22c-.87-.17-1.66-.29-2.43-.5-8.59-2.33-17.15-4.8-25.77-7-7.84-2-15.74-3.64-23.62-5.44-.45-.11-.91-.16-1.58-.28.35,3.49,1.1,6.83,1.66,10.19s1.25,6.68,1.89,10,1.33,6.76,2,10.33l18.29-4.07c-.27,1.45-.48,2.7-.72,3.94q-3.7,19-7.44,37.91a7,7,0,0,1-.56,2.07,3.81,3.81,0,0,0-.15,3c4.82,20.55,9.82,41.06,15.17,61.48q3,11.36,5.89,22.72c.12.5.24,1,.34,1.44a1.07,1.07,0,0,1-.12.19.41.41,0,0,1-.13.08,1,1,0,0,1-.29.07l-41.12,0h-1.41c-7-26.71-13.66-53.46-20-80.47l-67,15.26v65.1H938.91C938.9,1671.22,938.9,1649.64,938.9,1627.83Zm100.36-56.19c-2.72-15.18-5.43-30.27-8.15-45.45a534.56,534.56,0,0,0-142.17,0c-2.73,15.24-5.44,30.33-8.15,45.5.69.17,1.33.35,2,.5q37,8.44,74.06,16.91a13.76,13.76,0,0,0,6.38,0c12.48-2.9,25-5.72,37.47-8.57l37.63-8.6C1038.64,1571.86,1039,1571.73,1039.26,1571.64Z"/><path class="cls-1" d="M1128.34,1130.63v43.11c-20.81,5.73-41.81,10.55-63.25,14.41-1.74,17.39-3.07,34.82-4.1,52.44h14.47c.28.56.53,1,.75,1.46q9.09,18.53,18.18,37a4.66,4.66,0,0,1,.56,3.11,1.27,1.27,0,0,1-.12.1.42.42,0,0,1-.12.08,1.7,1.7,0,0,1-.31.06h-.46l-34.78,0a2.22,2.22,0,0,0-.35.11c0,.67-.12,1.42-.12,2.17,0,6.8.08,13.6.09,20.4,0,1.64-.12,3.27-.18,5h-41.28a23.38,23.38,0,0,1-.42-4.21q0-9.35-.06-18.7v-4.71H981.23v80.57a21.6,21.6,0,0,1-.56,5.23H939.35c-.14-.93-.33-1.82-.4-2.73s-.08-1.85-.08-2.78v-80.3H903.21c0,1.56,0,3.09,0,4.62q-.08,10.36-.18,20.72a20,20,0,0,1-.3,2.32H861.51c-.08-1.2-.22-2.37-.22-3.54q0-10.59,0-21.18v-3l-6.07,0H825.13a7.23,7.23,0,0,1,.28-1.06l17-38.76c.15-.33.34-.63.5-1a1.76,1.76,0,0,1,1.85-1c4.17,0,8.34,0,12.52,0h1.75c-1-17.62-2.39-35-4.1-52.49-21.3-3.84-42.3-8.65-63.19-14.39v-43.28c1,.2,1.87.34,2.74.59,17.42,5,35,9.47,52.76,13q14.63,2.88,29.34,5.25c10.47,1.68,21,2.88,31.58,3.9,15.13,1.47,30.3,2.26,45.51,2.53,10.77.19,21.53-.09,32.28-.68,5.66-.31,11.32-.58,17-1,5.9-.47,11.8-1.07,17.68-1.75,6.55-.75,13.1-1.51,19.61-2.52q13.2-2,26.33-4.48c19.39-3.63,38.52-8.4,57.49-13.77A12.65,12.65,0,0,1,1128.34,1130.63ZM981.25,1240.54h37.68c1.15-15.45,2.3-30.78,3.46-46.23-7,.61-13.92,1.29-20.84,1.77s-13.88.88-20.83,1.14-13.8.41-20.7.41-13.91-.16-20.85-.42-13.9-.65-20.83-1.13-13.8-1.17-20.67-1.76c1.16,15.52,2.31,30.86,3.46,46.19,2.29.32,36.61.2,37.75-.15v-1.66c0-5.92,0-11.85,0-17.78,0-.75.09-1.49.14-2.26H981.2C981.28,1226,981.2,1233.2,981.25,1240.54Z"/><path class="cls-1" d="M826.09,1332.45c3.15,1.16,6.08,2.27,9,3.32a323.39,323.39,0,0,0,49,13.16c5.47,1,11,1.87,16.45,2.75a1.38,1.38,0,0,1,1.27,1.1,18.07,18.07,0,0,1,.94,5.92c-.14,4.38-.27,8.76-.49,13.13-.34,6.69-.73,13.38-1.13,20.07-.22,3.55-.52,7.09-.77,10.64-.07.92-.12,1.84-.18,2.9,8-.63,16-1.35,23.9-1.83s16-.88,23.93-1.07,15.87-.19,23.8,0,16,.58,23.93,1.07,15.91,1.2,24,1.83l-.27-4.55c-.38-5.71-.8-11.41-1.12-17.12-.43-7.57-.77-15.14-1.18-22.7a24.21,24.21,0,0,1,.83-8,1.75,1.75,0,0,1,1.66-1.47,334.32,334.32,0,0,0,73-18.76c.37-.14.76-.25,1.28-.41v34.3c-11.07,4-22.51,6.75-34.17,9.42.81,11.76,1.61,23.46,2.41,35,11.25,2.35,22.3,4.57,33.31,7s21.92,5.16,32.8,8.27v43a7.38,7.38,0,0,1-3.14-.45c-6.36-1.74-12.69-3.55-19.06-5.22q-20.24-5.34-40.81-9.23c-8.5-1.6-17-3.19-25.6-4.22-6.54-.79-13-1.83-19.59-2.66-4.18-.53-8.39-.92-12.6-1.28-4.67-.4-9.35-.77-14-1-6.33-.36-12.66-.72-19-.87-7.83-.18-15.66-.3-23.49-.16-8.13.16-16.27.54-24.39,1-7.71.48-15.42,1.11-23.1,1.94s-15.21,1.94-22.81,3c-4.85.67-9.71,1.3-14.51,2.19-9.77,1.82-19.53,3.68-29.24,5.75-13.6,2.9-27,6.4-40.39,10.31-1.52.44-3.09.74-4.63,1.1-.33-1.24-.45-40.43-.15-43.24q32.46-9.06,65.93-14.94c.92-11.79,1.82-23.48,2.4-35.28-11.54-2.65-22.93-5.42-34-9.39Z"/></svg>