 <svg  version="1.0" xmlns="http://www.w3.org/2000/svg"  width="900.000000pt" height="900.000000pt" viewBox="0 0 900.000000 900.000000"  preserveAspectRatio="xMidYMid meet">  <g transform="translate(0.000000,900.000000) scale(0.100000,-0.100000)" fill="#ffffff" stroke="none"> <path d="M2540 7605 c0 -231 1 -245 19 -255 11 -5 32 -10 48 -10 15 -1 39 -7 53 -15 14 -8 41 -15 60 -15 19 0 46 -7 60 -15 14 -8 43 -15 65 -15 22 0 51 -7 65 -15 14 -8 42 -14 63 -15 21 0 54 -7 74 -15 19 -8 53 -15 75 -15 21 0 55 -7 75 -15 19 -8 44 -15 54 -15 29 0 34 -18 40 -155 3 -71 12 -166 18 -210 7 -44 11 -120 9 -170 l-3 -90 -90 -5 c-87 -5 -90 -6 -104 -35 -8 -16 -18 -37 -23 -45 -4 -8 -11 -22 -14 -30 -3 -8 -12 -30 -19 -48 -8 -18 -21 -47 -28 -65 -7 -17 -21 -49 -30 -69 -9 -21 -24 -55 -34 -75 -9 -21 -22 -50 -30 -66 -8 -15 -11 -32 -8 -37 4 -6 85 -10 211 -10 l204 0 0 -144 c0 -79 3 -151 6 -160 5 -14 35 -16 228 -16 159 0 225 3 234 12 8 8 12 58 12 160 l0 148 210 0 210 0 2 -492 3 -493 234 -3 c181 -2 236 1 243 10 4 7 8 230 8 496 l0 482 215 0 215 0 0 -141 c0 -77 5 -149 10 -160 10 -18 23 -19 223 -19 155 0 218 3 230 13 14 10 17 35 19 157 l3 145 203 3 c162 2 204 5 208 16 3 8 -45 116 -106 240 l-111 226 -72 0 c-79 0 -98 7 -98 36 0 82 22 407 30 439 6 22 11 64 11 93 0 33 5 54 13 56 6 2 35 11 62 20 28 9 66 16 86 16 20 0 53 7 72 15 20 8 53 15 74 15 21 1 49 7 63 15 14 8 41 14 61 15 20 0 50 7 65 15 16 8 43 15 60 15 18 0 45 7 60 15 16 8 43 15 60 15 62 0 65 13 65 261 0 123 -1 230 -1 237 0 16 -39 15 -70 -3 -14 -8 -38 -14 -53 -15 -16 0 -38 -5 -50 -12 -12 -6 -40 -15 -62 -19 -51 -10 -118 -27 -176 -45 -26 -8 -62 -14 -80 -14 -19 -1 -45 -7 -59 -15 -14 -8 -44 -14 -66 -15 -23 0 -58 -7 -77 -15 -20 -8 -56 -15 -80 -15 -25 0 -64 -7 -87 -15 -23 -8 -62 -15 -86 -15 -24 0 -69 -7 -101 -15 -31 -8 -84 -15 -118 -15 -33 0 -78 -5 -100 -11 -22 -5 -112 -14 -200 -19 -88 -5 -236 -14 -330 -20 -133 -10 -207 -10 -340 0 -93 6 -242 16 -330 20 -88 5 -176 13 -195 19 -19 6 -65 11 -101 11 -36 0 -88 7 -115 15 -27 8 -71 15 -99 15 -27 1 -68 7 -90 15 -22 8 -59 15 -82 15 -23 0 -54 5 -70 12 -15 6 -53 15 -83 19 -30 4 -75 12 -100 19 -105 27 -127 32 -170 39 -25 4 -55 13 -67 19 -12 7 -34 12 -50 12 -15 1 -39 7 -53 15 -14 8 -38 15 -55 15 -16 0 -41 7 -55 15 -14 8 -35 14 -47 15 l-23 0 0 -245z m1515 -507 c359 -21 935 -13 1093 14 93 16 98 8 78 -113 -8 -52 -17 -163 -19 -247 -3 -129 -7 -155 -22 -172 -17 -19 -31 -20 -215 -20 -141 0 -201 3 -213 13 -14 10 -17 34 -19 132 l-3 120 -240 0 -240 0 -5 -130 -5 -130 -209 -3 c-145 -2 -213 1 -222 9 -10 8 -14 36 -14 94 0 45 -7 126 -15 181 -16 105 -20 256 -8 268 5 4 21 5 38 1 16 -3 125 -11 240 -17z"/> <path d="M2934 5467 c-2 -7 -3 -91 -2 -186 3 -143 6 -175 18 -181 29 -14 86 -32 130 -41 24 -5 49 -14 54 -19 6 -6 26 -10 46 -10 19 -1 46 -7 60 -15 14 -8 37 -14 52 -15 39 0 49 -25 38 -101 -5 -35 -10 -119 -10 -185 0 -121 0 -122 -27 -140 -15 -9 -57 -20 -93 -24 -36 -4 -78 -12 -93 -18 -16 -7 -43 -12 -61 -12 -19 0 -50 -7 -69 -15 -20 -8 -53 -15 -74 -15 -21 -1 -49 -7 -63 -15 -14 -8 -40 -14 -58 -15 -18 0 -43 -5 -55 -12 -12 -6 -42 -15 -67 -19 -25 -4 -62 -13 -83 -21 l-37 -13 2 -240 3 -240 45 3 c24 2 57 10 72 18 15 8 40 14 55 14 15 1 39 7 53 15 14 8 41 15 60 15 19 0 46 7 60 15 14 8 39 14 56 15 17 0 48 7 67 15 20 8 52 15 70 15 19 0 51 7 70 15 20 8 54 15 75 15 22 0 56 7 75 15 20 8 58 15 84 15 26 0 66 7 88 15 22 8 66 14 97 15 31 0 83 7 115 15 31 8 89 15 128 15 38 0 106 7 150 15 62 11 180 14 530 14 248 0 475 -5 505 -10 30 -5 111 -13 180 -18 69 -5 138 -14 153 -20 16 -6 54 -11 86 -11 32 0 78 -7 101 -15 23 -8 63 -15 89 -15 25 -1 64 -7 86 -15 22 -8 57 -15 78 -15 21 0 54 -7 74 -15 19 -8 51 -15 70 -15 18 0 50 -7 70 -15 19 -8 50 -15 67 -15 17 -1 42 -7 56 -15 14 -8 41 -15 60 -15 19 0 46 -7 60 -15 14 -8 38 -14 53 -15 15 0 40 -6 55 -14 15 -7 48 -17 75 -20 39 -6 47 -5 47 8 0 9 1 115 1 236 0 121 -1 225 -1 230 0 6 -8 10 -17 10 -10 0 -31 7 -47 15 -15 8 -42 15 -60 15 -17 1 -42 7 -56 15 -14 8 -41 15 -60 15 -19 0 -46 7 -60 15 -14 8 -42 14 -63 15 -21 0 -54 7 -74 15 -19 8 -51 15 -70 15 -18 0 -50 7 -70 15 -19 8 -55 15 -80 15 -24 0 -59 7 -78 14 -33 14 -35 18 -35 63 0 26 -7 89 -15 138 -19 113 -20 224 -2 229 6 2 32 9 57 16 25 6 63 14 85 17 22 3 49 12 60 19 11 8 33 14 50 14 16 1 41 7 55 15 14 8 35 14 47 15 30 0 35 31 31 225 -3 157 -3 160 -25 163 -13 2 -33 -4 -45 -12 -12 -9 -32 -16 -43 -16 -12 0 -30 -7 -41 -15 -10 -8 -32 -15 -49 -15 -16 0 -39 -7 -49 -15 -11 -8 -34 -15 -50 -15 -17 0 -40 -7 -50 -15 -11 -8 -36 -15 -55 -15 -20 -1 -47 -7 -61 -15 -14 -8 -42 -14 -63 -15 -21 0 -48 -5 -60 -12 -12 -6 -48 -14 -82 -18 -52 -7 -154 -26 -192 -36 -19 -5 -17 -351 2 -489 12 -81 12 -111 4 -121 -15 -18 -62 -18 -174 1 -134 22 -914 21 -1053 -1 -55 -8 -115 -14 -133 -12 l-34 3 -3 94 c-1 52 4 157 13 234 27 249 20 297 -47 297 -14 0 -45 7 -68 15 -23 8 -60 15 -82 15 -21 0 -55 7 -75 15 -19 8 -52 15 -72 15 -20 1 -47 7 -61 15 -14 8 -41 14 -61 15 -19 0 -44 7 -55 15 -10 8 -32 15 -49 15 -16 0 -41 7 -55 15 -14 8 -36 15 -50 15 -14 0 -34 7 -44 15 -11 8 -29 15 -41 15 -12 0 -30 7 -41 15 -24 18 -73 19 -80 2z"/> <path d="M3995 3754 c-44 -7 -117 -13 -162 -13 -45 -1 -108 -8 -140 -16 -31 -8 -85 -15 -119 -15 -34 0 -81 -7 -104 -15 -23 -8 -66 -15 -94 -15 -28 0 -69 -7 -91 -15 -22 -8 -59 -14 -81 -15 -23 0 -58 -7 -77 -15 -20 -8 -54 -15 -75 -15 -22 0 -56 -7 -75 -15 -20 -8 -49 -15 -65 -15 -16 0 -46 -7 -65 -15 -20 -8 -51 -15 -69 -15 -18 -1 -44 -7 -58 -15 -14 -8 -38 -15 -55 -15 -16 0 -41 -7 -55 -15 -14 -8 -35 -14 -48 -15 l-22 0 2 -247 c3 -215 5 -247 18 -244 8 2 31 6 50 9 19 2 44 11 55 18 11 8 34 14 51 14 17 0 45 7 60 15 16 8 43 15 59 15 17 1 41 7 55 15 14 8 41 14 61 15 20 0 53 7 72 15 20 8 60 15 88 15 51 0 51 0 44 -27 -3 -16 -10 -58 -14 -94 -4 -36 -11 -72 -16 -79 -4 -7 -11 -38 -14 -69 -6 -55 -7 -56 -39 -59 -18 -2 -55 4 -82 13 -64 21 -106 17 -102 -10 13 -78 21 -114 31 -138 6 -16 11 -43 11 -62 0 -18 7 -46 15 -61 8 -16 15 -47 15 -69 1 -22 7 -51 15 -65 19 -33 19 -131 0 -177 -8 -19 -15 -50 -15 -67 -1 -17 -7 -42 -15 -56 -8 -14 -14 -40 -15 -58 0 -18 -7 -49 -15 -69 -8 -19 -15 -50 -15 -67 -1 -17 -7 -42 -15 -56 -8 -14 -15 -41 -15 -60 0 -19 -7 -46 -15 -60 -8 -14 -14 -38 -15 -55 0 -16 -7 -43 -15 -59 -8 -15 -15 -42 -15 -60 -1 -17 -7 -42 -15 -56 -8 -14 -15 -41 -15 -60 0 -19 -7 -46 -15 -60 -8 -14 -14 -44 -15 -67 l0 -43 235 0 234 0 21 46 c11 26 20 61 20 78 1 17 7 42 15 56 8 14 15 39 15 55 0 17 7 41 15 55 8 14 14 40 15 58 0 18 5 43 12 55 6 12 15 42 19 67 9 52 24 115 45 181 8 26 14 60 14 75 1 16 7 40 15 54 8 14 14 40 15 58 0 19 7 50 17 69 13 28 20 33 37 28 12 -4 44 -10 71 -14 28 -4 60 -12 72 -19 12 -7 39 -12 60 -12 21 -1 49 -7 63 -15 14 -8 43 -15 65 -15 22 0 51 -7 65 -15 14 -8 42 -14 63 -15 21 0 54 -7 74 -15 19 -8 48 -15 64 -15 15 0 40 -5 56 -11 15 -7 44 -15 63 -18 l35 -6 5 -380 5 -380 236 -3 237 -2 6 22 c3 13 6 181 6 374 0 369 1 374 46 374 12 0 38 7 57 15 20 8 49 15 65 15 16 0 46 7 65 15 20 8 49 15 65 15 16 0 46 7 65 15 20 8 53 15 74 15 21 1 49 7 63 15 14 8 42 14 63 15 21 0 48 5 60 12 12 7 45 15 72 19 28 4 60 10 72 14 16 5 24 3 26 -6 3 -8 12 -36 21 -64 9 -27 16 -63 16 -80 1 -16 7 -41 15 -55 8 -14 15 -41 15 -60 0 -19 7 -46 15 -60 8 -14 14 -41 15 -61 0 -20 7 -50 15 -65 8 -16 15 -43 15 -60 0 -18 7 -45 15 -60 8 -16 15 -42 15 -59 1 -16 7 -41 15 -55 8 -14 15 -41 15 -60 0 -19 7 -46 15 -60 8 -14 14 -41 15 -61 0 -67 7 -69 269 -69 259 0 259 0 227 66 -9 19 -16 47 -16 62 -1 15 -7 38 -15 52 -8 14 -15 41 -15 60 0 19 -7 46 -15 60 -8 14 -14 41 -15 61 0 19 -5 40 -10 45 -6 6 -15 33 -20 60 -11 59 -27 123 -46 184 -8 25 -14 59 -14 75 -1 17 -7 41 -15 55 -8 14 -14 39 -15 56 0 17 -7 48 -15 67 -9 22 -15 68 -15 117 0 49 6 95 15 117 8 19 15 53 15 75 0 21 7 55 15 75 8 19 15 53 15 74 0 21 7 56 16 78 21 53 16 97 -11 93 -46 -8 -122 -22 -152 -28 -30 -6 -33 -4 -33 19 0 13 -7 44 -15 67 -8 23 -15 58 -15 77 0 19 -7 56 -16 82 -8 27 -14 62 -12 77 3 28 4 29 53 25 28 -1 65 -9 84 -17 18 -8 47 -14 63 -14 16 0 45 -7 65 -15 19 -8 47 -15 62 -15 14 -1 37 -7 51 -15 14 -8 39 -14 55 -15 17 0 42 -6 56 -14 39 -20 129 -30 129 -14 0 33 1 454 0 466 0 6 -10 12 -22 12 -13 1 -34 7 -48 15 -14 8 -38 14 -55 15 -16 0 -43 7 -59 15 -15 8 -41 15 -57 15 -17 0 -46 7 -66 15 -19 8 -52 15 -72 15 -20 1 -47 7 -61 15 -14 8 -44 14 -68 15 -23 0 -59 7 -79 15 -19 8 -54 15 -77 15 -22 1 -59 7 -81 15 -22 8 -65 15 -95 15 -30 1 -73 7 -95 15 -22 8 -67 15 -100 15 -34 0 -87 7 -118 15 -32 8 -95 15 -140 15 -45 0 -122 7 -172 15 -119 19 -878 19 -1000 -1z m985 -475 c30 -5 115 -13 189 -18 98 -7 138 -14 151 -26 21 -19 40 -87 40 -143 0 -22 7 -59 15 -82 8 -23 15 -62 15 -85 0 -23 7 -59 15 -80 10 -22 15 -58 13 -93 -3 -56 -3 -57 -38 -62 -20 -4 -41 -10 -48 -14 -7 -4 -37 -12 -65 -16 -29 -5 -72 -14 -97 -20 -25 -6 -63 -16 -85 -21 -22 -6 -62 -14 -90 -18 -27 -4 -60 -12 -72 -19 -12 -7 -39 -12 -60 -12 -21 -1 -49 -7 -63 -15 -14 -8 -42 -14 -63 -15 -21 0 -48 -5 -60 -12 -27 -15 -116 -30 -177 -30 -61 0 -150 15 -177 30 -12 7 -39 12 -60 12 -21 1 -49 7 -63 15 -14 8 -42 14 -63 15 -21 0 -54 7 -74 15 -19 8 -49 15 -65 15 -16 0 -45 7 -65 15 -19 8 -49 15 -65 15 -16 0 -45 7 -65 15 -19 8 -51 15 -70 15 -19 0 -44 5 -56 12 -12 7 -40 14 -62 18 -38 5 -40 6 -38 40 3 62 20 164 32 193 6 16 11 48 11 71 0 24 7 63 15 86 8 23 15 64 15 90 0 70 21 80 184 91 72 5 154 13 181 18 68 11 896 12 965 0z"/> </g> </svg> 